# 2D annulus: outer circle radius 1 (CCW), inner circle radius 0.4 (CW = hole).
# The inner loop is traversed clockwise so the winding number is -1 inside it,
# cancelling the outer +1 to give 0 = outside (correct for a hole).

# outer boundary (CCW)
v 1.000000 0.000000 0.0
v 0.980785 0.195090 0.0
v 0.923880 0.382683 0.0
v 0.831470 0.555570 0.0
v 0.707107 0.707107 0.0
v 0.555570 0.831470 0.0
v 0.382683 0.923880 0.0
v 0.195090 0.980785 0.0
v 0.000000 1.000000 0.0
v -0.195090 0.980785 0.0
v -0.382683 0.923880 0.0
v -0.555570 0.831470 0.0
v -0.707107 0.707107 0.0
v -0.831470 0.555570 0.0
v -0.923880 0.382683 0.0
v -0.980785 0.195090 0.0
v -1.000000 0.000000 0.0
v -0.980785 -0.195090 0.0
v -0.923880 -0.382683 0.0
v -0.831470 -0.555570 0.0
v -0.707107 -0.707107 0.0
v -0.555570 -0.831470 0.0
v -0.382683 -0.923880 0.0
v -0.195090 -0.980785 0.0
v -0.000000 -1.000000 0.0
v 0.195090 -0.980785 0.0
v 0.382683 -0.923880 0.0
v 0.555570 -0.831470 0.0
v 0.707107 -0.707107 0.0
v 0.831470 -0.555570 0.0
v 0.923880 -0.382683 0.0
v 0.980785 -0.195090 0.0

# inner boundary (CW so it is a hole)
v 0.400000 0.000000 0.0
v 0.386370 0.103528 0.0
v 0.346410 0.200000 0.0
v 0.282843 0.282843 0.0
v 0.200000 0.346410 0.0
v 0.103528 0.386370 0.0
v 0.000000 0.400000 0.0
v -0.103528 0.386370 0.0
v -0.200000 0.346410 0.0
v -0.282843 0.282843 0.0
v -0.346410 0.200000 0.0
v -0.386370 0.103528 0.0
v -0.400000 0.000000 0.0
v -0.386370 -0.103528 0.0
v -0.346410 -0.200000 0.0
v -0.282843 -0.282843 0.0
v -0.200000 -0.346410 0.0
v -0.103528 -0.386370 0.0
v -0.000000 -0.400000 0.0
v 0.103528 -0.386370 0.0
v 0.200000 -0.346410 0.0
v 0.282843 -0.282843 0.0
v 0.346410 -0.200000 0.0
v 0.386370 -0.103528 0.0

l 1 2 3 4 5 6 7 8 9 10 11 12 13 14 15 16 17 18 19 20 21 22 23 24 25 26 27 28 29 30 31 32 1
l 33 56 55 54 53 52 51 50 49 48 47 46 45 44 43 42 41 40 39 38 37 36 35 34 33
