# Unit sphere, low-res UV sphere (5 sectors x 6 stacks).
# 22 vertices, 40 triangles. Outward-CCW winding.

v 0.000000 0.000000 1.000000
v 0.587785 0.000000 0.809017
v 0.181636 0.559017 0.809017
v -0.475528 0.345492 0.809017
v -0.475528 -0.345492 0.809017
v 0.181636 -0.559017 0.809017
v 0.951057 0.000000 0.309017
v 0.293893 0.904508 0.309017
v -0.769421 0.559017 0.309017
v -0.769421 -0.559017 0.309017
v 0.293893 -0.904508 0.309017
v 0.951057 0.000000 -0.309017
v 0.293893 0.904508 -0.309017
v -0.769421 0.559017 -0.309017
v -0.769421 -0.559017 -0.309017
v 0.293893 -0.904508 -0.309017
v 0.587785 0.000000 -0.809017
v 0.181636 0.559017 -0.809017
v -0.475528 0.345492 -0.809017
v -0.475528 -0.345492 -0.809017
v 0.181636 -0.559017 -0.809017
v 0.000000 0.000000 -1.000000

f 1 2 3
f 1 3 4
f 1 4 5
f 1 5 6
f 1 6 2
f 2 7 8
f 2 8 3
f 3 8 9
f 3 9 4
f 4 9 10
f 4 10 5
f 5 10 11
f 5 11 6
f 6 11 7
f 6 7 2
f 7 12 13
f 7 13 8
f 8 13 14
f 8 14 9
f 9 14 15
f 9 15 10
f 10 15 16
f 10 16 11
f 11 16 12
f 11 12 7
f 12 17 18
f 12 18 13
f 13 18 19
f 13 19 14
f 14 19 20
f 14 20 15
f 15 20 21
f 15 21 16
f 16 21 17
f 16 17 12
f 22 18 17
f 22 19 18
f 22 20 19
f 22 21 20
f 22 17 21
