# 2D unit circle, discretised as a 32-segment polygon (CCW from (1,0))
v 1.000000 0.000000 0.0
v 0.980785 0.195090 0.0
v 0.923880 0.382683 0.0
v 0.831470 0.555570 0.0
v 0.707107 0.707107 0.0
v 0.555570 0.831470 0.0
v 0.382683 0.923880 0.0
v 0.195090 0.980785 0.0
v 0.000000 1.000000 0.0
v -0.195090 0.980785 0.0
v -0.382683 0.923880 0.0
v -0.555570 0.831470 0.0
v -0.707107 0.707107 0.0
v -0.831470 0.555570 0.0
v -0.923880 0.382683 0.0
v -0.980785 0.195090 0.0
v -1.000000 0.000000 0.0
v -0.980785 -0.195090 0.0
v -0.923880 -0.382683 0.0
v -0.831470 -0.555570 0.0
v -0.707107 -0.707107 0.0
v -0.555570 -0.831470 0.0
v -0.382683 -0.923880 0.0
v -0.195090 -0.980785 0.0
v -0.000000 -1.000000 0.0
v 0.195090 -0.980785 0.0
v 0.382683 -0.923880 0.0
v 0.555570 -0.831470 0.0
v 0.707107 -0.707107 0.0
v 0.831470 -0.555570 0.0
v 0.923880 -0.382683 0.0
v 0.980785 -0.195090 0.0

l 1 2 3 4 5 6 7 8 9 10 11 12 13 14 15 16 17 18 19 20 21 22 23 24 25 26 27 28 29 30 31 32 1
